<?xml version="1.0" encoding="UTF-8"?>
<svg width="512" height="512" version="1.1" viewBox="0 0 512 512" xml:space="preserve" xmlns="http://www.w3.org/2000/svg"><defs><linearGradient id="b" x1="400" x2="0" y1="400" gradientUnits="userSpaceOnUse"><stop stop-color="#393939" offset="0"/><stop offset="1"/></linearGradient><linearGradient id="c" x1="30" x2="370" y1="370" y2="30" gradientUnits="userSpaceOnUse"><stop stop-color="#2c2c2c" offset="0"/><stop stop-color="#fff" offset="1"/></linearGradient><linearGradient id="a" x1="200" x2="300" y1="200" y2="300" gradientUnits="userSpaceOnUse"><stop stop-color="#b55400" offset="0"/><stop stop-color="#ecb000" offset="1"/></linearGradient></defs><g transform="scale(1.28)" shape-rendering="geometricPrecision"><rect width="400" height="400" rx="0" ry="0" fill="url(#b)" stroke-width="0"/><g stroke-width=".8"><path d="m30 30v320l110-110-30-30-40 40v-120l90 90 190-190h-120l-40 40h60l-60 60-60-60 40-40h-140" fill="url(#c)"/><path d="m30 30 160 160" fill="none" stroke="#7e7e7e"/><path d="m250 370h-220l340-340v220l-60-60-40 40 50 50-40 40-50-50-40 40z" fill="url(#a)"/></g></g></svg>
